<?xml version="1.0" standalone="no"?>
<!DOCTYPE svg PUBLIC "-//W3C//DTD SVG 20010904//EN"
 "http://www.w3.org/TR/2001/REC-SVG-20010904/DTD/svg10.dtd">
<svg version="1.0" xmlns="http://www.w3.org/2000/svg"
 width="800.000000pt" height="800.000000pt" viewBox="0 0 800.000000 800.000000"
 preserveAspectRatio="xMidYMid meet">

<g transform="translate(0.000000,800.000000) scale(0.100000,-0.100000)"
fill="#000000" stroke="none">
<path d="M3725 6100 c-3 -5 -26 -10 -50 -10 -24 0 -47 -4 -50 -10 -3 -5 -21
-10 -40 -10 -19 0 -37 -4 -40 -10 -3 -5 -26 -10 -50 -10 -24 0 -47 -4 -50 -10
-3 -5 -17 -10 -30 -10 -13 0 -27 -4 -30 -10 -3 -5 -17 -10 -30 -10 -13 0 -27
-4 -30 -10 -3 -5 -17 -10 -30 -10 -13 0 -27 -4 -30 -10 -3 -5 -14 -10 -23 -10
-22 0 -317 -147 -333 -166 -6 -8 -17 -14 -24 -14 -6 0 -20 -9 -30 -20 -10 -11
-23 -20 -30 -20 -7 0 -20 -9 -30 -20 -10 -11 -23 -20 -29 -20 -7 0 -34 -22
-61 -50 -27 -27 -53 -50 -58 -50 -10 0 -277 -267 -277 -278 0 -4 -18 -26 -40
-50 -22 -23 -40 -47 -40 -53 0 -6 -13 -24 -30 -39 -16 -15 -30 -35 -30 -44 0
-9 -4 -16 -10 -16 -5 0 -10 -8 -10 -18 0 -10 -9 -24 -20 -32 -11 -8 -20 -22
-20 -32 0 -10 -4 -18 -10 -18 -5 0 -10 -8 -10 -18 0 -10 -9 -24 -20 -32 -11
-8 -20 -22 -20 -32 0 -10 -4 -18 -10 -18 -5 0 -10 -13 -10 -30 0 -16 -4 -30
-10 -30 -5 0 -10 -9 -10 -20 0 -11 -4 -20 -10 -20 -5 0 -10 -9 -10 -20 0 -11
-4 -20 -10 -20 -5 0 -10 -11 -10 -24 0 -14 -5 -28 -10 -31 -6 -3 -10 -15 -10
-26 0 -10 -4 -19 -10 -19 -5 0 -10 -13 -10 -30 0 -16 -4 -30 -10 -30 -5 0 -10
-13 -10 -30 0 -16 -4 -30 -10 -30 -5 0 -10 -15 -10 -34 0 -19 -4 -38 -10 -41
-5 -3 -10 -21 -10 -40 0 -19 -5 -37 -10 -40 -5 -3 -10 -24 -10 -46 0 -21 -4
-39 -10 -39 -6 0 -10 -31 -10 -74 0 -41 -5 -78 -10 -81 -6 -4 -10 -78 -10
-190 0 -112 4 -186 10 -190 5 -3 10 -33 10 -66 0 -33 4 -59 10 -59 6 0 10 -22
10 -50 0 -27 5 -50 10 -50 6 0 10 -18 10 -40 0 -22 5 -40 10 -40 6 0 10 -18
10 -40 0 -22 5 -40 10 -40 6 0 10 -13 10 -30 0 -16 5 -30 10 -30 6 0 10 -13
10 -30 0 -16 5 -30 10 -30 6 0 10 -9 10 -20 0 -11 5 -20 10 -20 6 0 10 -13 10
-30 0 -16 5 -30 10 -30 6 0 10 -9 10 -19 0 -10 7 -22 16 -25 9 -3 95 -6 192
-7 269 -2 463 -16 672 -49 36 -6 98 -13 138 -16 40 -4 75 -11 78 -15 3 -5 25
-9 49 -9 24 0 46 -4 49 -9 3 -5 20 -11 38 -14 46 -8 124 -24 183 -37 28 -6 65
-14 83 -17 18 -3 35 -9 38 -14 3 -5 23 -9 45 -9 21 0 39 -4 39 -10 0 -5 15
-10 34 -10 19 0 38 -4 41 -10 3 -5 17 -10 30 -10 13 0 27 -4 30 -10 3 -5 24
-10 46 -10 21 0 39 -4 39 -10 0 -5 11 -10 24 -10 14 0 28 -4 31 -10 3 -5 17
-10 30 -10 13 0 27 -4 30 -10 3 -5 19 -10 36 -10 16 0 29 -4 29 -10 0 -5 11
-10 24 -10 14 0 28 -4 31 -10 3 -5 17 -10 30 -10 13 0 27 -4 30 -10 3 -6 19
-10 36 -10 16 0 29 -4 29 -10 0 -5 14 -10 30 -10 17 0 30 -3 30 -7 0 -11 50
-33 71 -33 10 0 21 -4 24 -10 3 -5 15 -10 26 -10 10 0 19 -4 19 -10 0 -5 9
-10 20 -10 11 0 35 -9 55 -20 20 -11 47 -20 60 -20 14 0 25 -3 25 -7 0 -12 51
-33 77 -33 13 0 23 -4 23 -10 0 -5 9 -10 20 -10 11 0 20 -4 20 -10 0 -5 9 -10
20 -10 11 0 20 -4 20 -10 0 -5 14 -10 30 -10 17 0 30 -4 30 -10 0 -5 9 -10 20
-10 11 0 20 -4 20 -10 0 -5 9 -10 19 -10 11 0 21 -3 23 -8 4 -9 169 -92 184
-92 15 0 72 -29 79 -40 7 -11 64 -40 80 -40 7 0 20 9 30 20 10 11 23 20 29 20
14 0 336 322 336 336 0 6 9 19 20 29 11 10 20 23 20 30 0 6 14 24 30 40 17 16
30 34 30 41 0 6 7 17 15 24 9 7 23 29 32 49 9 20 23 44 31 53 19 23 122 229
122 245 0 7 9 28 20 48 11 20 20 44 20 55 0 10 5 22 10 25 6 3 10 21 10 40 0
19 5 37 10 40 20 12 9 40 -32 82 -23 24 -47 43 -54 43 -6 0 -19 9 -29 20 -10
11 -23 20 -30 20 -6 0 -24 14 -40 30 -16 17 -34 30 -40 30 -6 0 -24 14 -40 30
-16 17 -34 30 -40 30 -7 0 -20 9 -30 20 -10 11 -24 20 -30 20 -7 0 -18 7 -25
15 -7 9 -29 23 -49 32 -20 9 -44 23 -53 31 -26 22 -270 142 -290 142 -9 0 -20
5 -23 10 -3 6 -18 10 -33 10 l-26 0 39 -40 c21 -22 44 -40 50 -40 6 0 32 -22
58 -48 46 -47 48 -51 45 -98 l-3 -49 -59 -3 c-53 -3 -62 0 -90 25 -17 16 -44
35 -61 43 -16 8 -38 20 -47 28 -27 22 -110 62 -129 62 -10 0 -21 5 -24 10 -3
6 -17 10 -30 10 -13 0 -27 5 -30 10 -3 6 -17 10 -30 10 -13 0 -27 5 -30 10 -8
13 -222 13 -230 0 -3 -5 -17 -10 -30 -10 -13 0 -27 -4 -30 -10 -3 -5 -14 -10
-24 -10 -37 0 -118 -52 -188 -122 -73 -72 -103 -115 -103 -148 0 -9 -8 -24
-18 -33 -20 -19 -87 -23 -97 -7 -3 6 -21 10 -40 10 -19 0 -37 5 -40 10 -3 6
-21 10 -40 10 -19 0 -37 5 -40 10 -3 6 -14 10 -23 10 -22 0 -197 87 -212 106
-7 8 -18 14 -24 14 -22 0 -77 67 -112 136 -34 69 -35 70 -35 208 0 85 4 143
10 149 6 6 11 23 11 37 0 94 210 310 301 310 10 0 20 4 23 9 7 11 134 26 196
23 47 -2 268 -19 355 -27 58 -6 135 -17 305 -45 30 -5 73 -12 95 -15 22 -4 49
-10 60 -15 18 -8 45 -13 130 -27 17 -2 39 -8 50 -13 11 -5 34 -11 50 -14 52
-8 89 -17 110 -25 50 -20 94 -31 123 -31 17 0 34 -4 37 -10 3 -5 17 -10 30
-10 13 0 27 -4 30 -10 3 -5 19 -10 35 -10 16 0 45 -9 65 -20 20 -11 44 -20 55
-20 10 0 22 -4 25 -10 3 -5 17 -10 30 -10 13 0 27 -4 30 -10 3 -5 19 -10 35
-10 16 0 45 -9 65 -20 20 -11 44 -20 55 -20 10 0 22 -4 25 -10 3 -5 15 -10 25
-10 11 0 35 -9 55 -20 20 -11 41 -20 48 -20 7 0 32 -9 55 -20 22 -11 46 -20
52 -20 13 0 13 77 0 85 -5 3 -10 30 -10 60 0 30 -4 57 -10 60 -5 3 -10 30 -10
60 0 30 -4 57 -10 60 -5 3 -10 17 -10 30 0 13 -4 27 -10 30 -5 3 -10 17 -10
30 0 13 -4 27 -10 30 -5 3 -10 19 -10 35 0 16 -9 45 -20 65 -11 20 -20 42 -20
50 0 8 -9 30 -20 50 -11 20 -20 41 -20 48 0 16 -103 222 -122 245 -8 9 -22 33
-31 52 -8 19 -27 46 -41 59 -14 14 -26 30 -26 36 0 6 -13 24 -30 40 -16 16
-30 34 -30 39 0 15 -362 376 -376 376 -6 0 -19 9 -29 20 -10 11 -23 20 -30 20
-6 0 -22 12 -36 26 -13 14 -40 33 -59 41 -19 9 -43 23 -52 31 -26 22 -311 162
-330 162 -9 0 -20 5 -23 10 -3 6 -15 10 -25 10 -11 0 -35 9 -55 20 -20 11 -49
20 -65 20 -16 0 -32 5 -35 10 -3 6 -21 10 -40 10 -19 0 -37 5 -40 10 -3 6 -21
10 -40 10 -19 0 -37 5 -40 10 -3 6 -26 10 -50 10 -24 0 -47 5 -50 10 -4 6
-110 10 -285 10 -175 0 -281 -4 -285 -10z m110 -1060 c95 -11 161 -36 208 -79
22 -20 27 -33 27 -71 0 -41 -5 -50 -43 -88 -24 -24 -75 -59 -112 -78 -60 -29
-79 -34 -141 -34 -40 0 -76 5 -79 10 -3 6 -17 10 -30 10 -13 0 -27 5 -30 10
-3 6 -26 10 -50 10 -24 0 -47 5 -50 10 -3 6 -26 10 -50 10 -24 0 -47 5 -50 10
-4 6 -73 10 -175 10 -102 0 -171 -4 -175 -10 -3 -5 -22 -10 -41 -10 -32 0 -34
2 -34 34 0 18 7 39 15 46 22 18 227 120 242 120 7 0 28 9 48 20 20 11 48 20
64 20 16 0 46 8 67 17 22 10 86 23 144 29 145 15 144 15 245 4z m-507 -365
c51 -4 95 -12 98 -16 3 -5 20 -9 39 -9 19 0 60 -7 92 -16 32 -9 70 -19 86 -21
23 -4 27 -10 27 -37 0 -26 -12 -44 -65 -96 -49 -48 -77 -88 -110 -155 l-45
-90 0 -122 c0 -70 4 -124 10 -128 6 -3 10 -14 10 -24 0 -9 16 -48 35 -86 25
-51 60 -95 132 -167 54 -54 103 -98 109 -98 6 0 19 -9 29 -20 10 -11 26 -20
36 -20 9 0 43 -13 74 -30 31 -16 65 -30 75 -30 11 0 21 -4 24 -8 6 -10 119
-31 181 -35 l40 -2 3 -115 c1 -63 7 -119 12 -124 6 -6 10 -25 10 -43 l0 -33
-64 0 c-36 0 -68 5 -71 10 -3 6 -15 10 -25 10 -11 0 -35 9 -55 20 -20 11 -41
20 -48 20 -16 0 -142 63 -165 82 -9 8 -33 22 -52 31 -19 8 -51 32 -69 51 -19
20 -40 36 -46 36 -6 0 -64 54 -130 120 -66 66 -125 120 -131 120 -6 0 -19 9
-29 20 -10 11 -24 20 -30 20 -7 0 -18 7 -25 15 -7 9 -29 23 -49 32 -20 9 -44
23 -53 31 -23 19 -108 62 -124 62 -6 0 -38 14 -69 30 -31 17 -65 30 -75 30
-11 0 -22 5 -25 10 -3 6 -16 10 -29 10 -13 0 -31 9 -41 20 -10 11 -23 20 -29
20 -14 0 -86 71 -86 85 0 7 -9 20 -20 30 -12 11 -20 31 -20 51 0 18 -4 36 -10
39 -6 3 -10 48 -10 99 0 85 3 98 34 159 55 110 198 237 266 237 9 0 20 3 24 8
9 9 167 27 221 26 22 -1 82 -5 133 -9z m-680 -171 c2 -18 -6 -47 -17 -68 -12
-20 -21 -45 -21 -56 0 -10 -4 -22 -10 -25 -5 -3 -10 -33 -10 -66 l0 -59 -39 0
c-25 0 -65 14 -116 40 -43 22 -84 40 -91 40 -7 0 -29 9 -49 20 -20 11 -44 20
-55 20 -10 0 -22 5 -25 10 -3 6 -21 10 -40 10 -19 0 -37 5 -40 10 -3 6 -15 10
-26 10 -17 0 -20 6 -17 37 3 42 5 43 153 63 44 6 112 16 150 21 245 35 249 34
253 -7z m2217 -684 c3 -5 15 -10 25 -10 11 0 35 -9 55 -20 20 -11 42 -20 49
-20 19 0 72 -28 86 -45 7 -8 18 -15 25 -15 6 0 20 -9 30 -20 10 -11 23 -20 29
-20 15 0 126 -112 126 -127 0 -6 7 -16 15 -23 18 -15 65 -109 65 -131 0 -10 5
-21 10 -24 6 -3 10 -17 10 -30 0 -13 5 -27 10 -30 6 -4 10 -63 10 -145 0 -82
-4 -141 -10 -145 -5 -3 -10 -19 -10 -34 0 -42 -64 -159 -117 -213 -48 -48
-131 -98 -164 -98 -10 0 -21 -4 -24 -10 -4 -6 -65 -10 -150 -10 -126 0 -149 3
-180 20 -20 11 -44 20 -54 20 -10 0 -26 9 -36 20 -10 11 -23 20 -29 20 -19 0
-182 173 -200 212 -9 20 -21 40 -26 43 -13 8 -40 65 -40 86 0 10 -4 21 -10 24
-5 3 -10 17 -10 30 0 13 -4 27 -10 30 -5 3 -10 26 -10 50 0 24 -4 47 -10 50
-6 4 -10 60 -10 135 0 75 4 131 10 135 6 3 10 17 10 30 0 13 5 27 10 30 6 3
10 16 10 29 0 13 9 31 20 41 11 10 20 23 20 29 0 14 71 86 85 86 7 0 20 9 30
20 11 12 31 20 51 20 18 0 36 5 39 10 4 6 60 10 135 10 75 0 131 -4 135 -10z"/>
<path d="M2170 2920 c0 -5 4 -10 8 -10 5 0 15 -12 23 -27 8 -16 22 -37 32 -47
9 -11 17 -26 17 -33 0 -7 4 -13 8 -13 5 0 15 -12 23 -27 8 -16 22 -35 31 -44
10 -9 18 -22 18 -29 0 -6 64 -77 143 -157 179 -184 179 -183 191 -183 6 0 28
-18 50 -40 21 -22 44 -40 51 -40 6 0 20 -9 30 -20 10 -11 24 -20 30 -20 7 0
18 -7 25 -15 7 -9 29 -23 49 -32 20 -9 44 -23 53 -31 26 -22 270 -142 290
-142 9 0 20 -4 23 -10 3 -5 14 -10 24 -10 9 0 36 -9 59 -20 22 -11 52 -20 65
-20 12 0 27 -4 33 -8 5 -5 34 -14 64 -20 30 -7 89 -19 130 -28 100 -21 515
-31 615 -15 38 7 99 17 135 23 36 5 75 15 88 21 l23 11 -38 38 c-21 20 -42 37
-48 38 -5 0 -28 17 -50 38 -22 20 -52 43 -67 51 -16 8 -28 18 -28 23 0 4 -6 8
-12 8 -7 0 -26 12 -43 28 -16 15 -42 33 -57 41 -16 8 -28 18 -28 23 0 4 -9 8
-20 8 -11 0 -20 5 -20 10 0 6 -6 10 -13 10 -7 0 -22 8 -33 18 -10 9 -31 23
-46 31 -16 8 -28 18 -28 23 0 4 -9 8 -20 8 -11 0 -20 5 -20 10 0 6 -9 10 -20
10 -11 0 -20 5 -20 10 0 6 -6 10 -13 10 -7 0 -23 9 -35 20 -12 11 -28 20 -37
20 -8 0 -15 5 -15 10 0 6 -9 10 -20 10 -11 0 -20 5 -20 10 0 6 -9 10 -20 10
-11 0 -20 5 -20 10 0 6 -9 10 -20 10 -11 0 -20 5 -20 10 0 6 -9 10 -20 10 -11
0 -20 5 -20 10 0 6 -9 10 -20 10 -11 0 -20 5 -20 10 0 6 -13 10 -30 10 -16 0
-30 5 -30 10 0 6 -9 10 -20 10 -11 0 -20 5 -20 10 0 6 -9 10 -20 10 -11 0 -20
5 -20 10 0 6 -9 10 -20 10 -11 0 -20 5 -20 10 0 6 -13 10 -30 10 -16 0 -30 5
-30 10 0 6 -9 10 -20 10 -11 0 -20 5 -20 10 0 6 -13 10 -30 10 -16 0 -30 5
-30 10 0 6 -9 10 -20 10 -11 0 -20 5 -20 10 0 6 -13 10 -30 10 -16 0 -30 5
-30 10 0 6 -13 10 -30 10 -16 0 -30 5 -30 10 0 6 -13 10 -30 10 -16 0 -30 5
-30 10 0 6 -11 10 -24 10 -14 0 -28 5 -31 10 -3 6 -17 10 -30 10 -13 0 -27 5
-30 10 -3 6 -21 10 -40 10 -19 0 -37 5 -40 10 -3 6 -17 10 -30 10 -13 0 -27 5
-30 10 -3 6 -21 10 -40 10 -19 0 -37 5 -40 10 -3 6 -26 10 -50 10 -24 0 -47 5
-50 10 -3 6 -21 10 -40 10 -19 0 -37 5 -40 10 -3 6 -26 10 -50 10 -24 0 -47 5
-50 10 -3 6 -39 10 -80 10 -41 0 -77 5 -80 10 -3 6 -24 10 -46 10 -21 0 -39
-4 -39 -10z"/>
</g>
</svg>
